<svg width="27" height="30" viewBox="0 0 27 30" fill="none" xmlns="http://www.w3.org/2000/svg">
<path d="M5.625 0C4.59375 0 3.75 0.84375 3.75 1.875V28.125C3.75 29.1562 4.59375 30 5.625 30H24.375C25.4062 30 26.25 29.1562 26.25 28.125V7.5L18.75 0H5.625Z" fill="#E2E5E7"/>
<path d="M20.625 7.5H26.25L18.75 0V5.625C18.75 6.65625 19.5938 7.5 20.625 7.5Z" fill="#B0B7BD"/>
<path d="M26.25 13.125L20.625 7.5H26.25V13.125Z" fill="#CAD1D8"/>
<path d="M22.5 24.375C22.5 24.8906 22.0781 25.3125 21.5625 25.3125H0.9375C0.421875 25.3125 0 24.8906 0 24.375V15C0 14.4844 0.421875 14.0625 0.9375 14.0625H21.5625C22.0781 14.0625 22.5 14.4844 22.5 15V24.375Z" fill="#367C2B"/>
<path d="M21.5625 25.3125H3.75V26.25H21.5625C22.0781 26.25 22.5 25.8281 22.5 25.3125V24.375C22.5 24.8906 22.0781 25.3125 21.5625 25.3125Z" fill="#CAD1D8"/>
<path d="M8.05469 20.7441C7.9668 21.4961 7.68848 22.0771 7.21973 22.4873C6.75423 22.8942 6.13411 23.0977 5.35938 23.0977C4.51953 23.0977 3.8457 22.7965 3.33789 22.1943C2.83333 21.5921 2.58105 20.7865 2.58105 19.7773V19.0938C2.58105 18.4329 2.69824 17.8519 2.93262 17.3506C3.17025 16.8493 3.50553 16.4652 3.93848 16.1982C4.37142 15.9281 4.87272 15.793 5.44238 15.793C6.19759 15.793 6.80306 16.0046 7.25879 16.4277C7.71452 16.8477 7.97982 17.4303 8.05469 18.1758H7.1123C7.03092 17.6094 6.85352 17.1992 6.58008 16.9453C6.3099 16.6914 5.93066 16.5645 5.44238 16.5645C4.84342 16.5645 4.37305 16.7858 4.03125 17.2285C3.69271 17.6712 3.52344 18.3011 3.52344 19.1182V19.8066C3.52344 20.5781 3.68457 21.1917 4.00684 21.6475C4.3291 22.1032 4.77995 22.3311 5.35938 22.3311C5.88021 22.3311 6.27897 22.2139 6.55566 21.9795C6.83561 21.7419 7.02116 21.3301 7.1123 20.7441H8.05469ZM11.4336 19.8311C10.6296 19.5999 10.0436 19.3167 9.67578 18.9814C9.3112 18.6429 9.12891 18.2262 9.12891 17.7314C9.12891 17.1715 9.35189 16.7093 9.79785 16.3447C10.2471 15.9769 10.8298 15.793 11.5459 15.793C12.0342 15.793 12.4688 15.8874 12.8496 16.0762C13.2337 16.265 13.5299 16.5254 13.7383 16.8574C13.9499 17.1895 14.0557 17.5524 14.0557 17.9463H13.1133C13.1133 17.5166 12.9766 17.1797 12.7031 16.9355C12.4297 16.6882 12.0439 16.5645 11.5459 16.5645C11.0837 16.5645 10.7223 16.667 10.4619 16.8721C10.2048 17.0739 10.0762 17.3555 10.0762 17.7168C10.0762 18.0065 10.1982 18.2523 10.4424 18.4541C10.6898 18.6527 11.1081 18.835 11.6973 19.001C12.2897 19.167 12.752 19.3509 13.084 19.5527C13.4193 19.7513 13.6667 19.984 13.8262 20.251C13.9889 20.5179 14.0703 20.832 14.0703 21.1934C14.0703 21.7695 13.8457 22.2318 13.3965 22.5801C12.9473 22.9251 12.3467 23.0977 11.5947 23.0977C11.1064 23.0977 10.6507 23.0049 10.2275 22.8193C9.80436 22.6305 9.47721 22.3734 9.24609 22.0479C9.01823 21.7223 8.9043 21.3529 8.9043 20.9395H9.84668C9.84668 21.3691 10.0046 21.7093 10.3203 21.96C10.6393 22.2074 11.0641 22.3311 11.5947 22.3311C12.0895 22.3311 12.4688 22.2301 12.7324 22.0283C12.9961 21.8265 13.1279 21.5514 13.1279 21.2031C13.1279 20.8548 13.0059 20.5863 12.7617 20.3975C12.5176 20.2054 12.0749 20.0166 11.4336 19.8311ZM17.6299 21.7549L19.6611 15.8906H20.6865L18.0498 23H17.2197L14.5879 15.8906H15.6084L17.6299 21.7549Z" fill="white"/>
</svg>
