<svg width="27" height="30" viewBox="0 0 27 30" fill="none" xmlns="http://www.w3.org/2000/svg">
<path d="M5.625 0C4.59375 0 3.75 0.84375 3.75 1.875V28.125C3.75 29.1562 4.59375 30 5.625 30H24.375C25.4062 30 26.25 29.1562 26.25 28.125V7.5L18.75 0H5.625Z" fill="#E2E5E7"/>
<path d="M20.625 7.5H26.25L18.75 0V5.625C18.75 6.65625 19.5938 7.5 20.625 7.5Z" fill="#B0B7BD"/>
<path d="M26.25 13.125L20.625 7.5H26.25V13.125Z" fill="#CAD1D8"/>
<path d="M22.5 24.375C22.5 24.8906 22.0781 25.3125 21.5625 25.3125H0.9375C0.421875 25.3125 0 24.8906 0 24.375V15C0 14.4844 0.421875 14.0625 0.9375 14.0625H21.5625C22.0781 14.0625 22.5 14.4844 22.5 15V24.375Z" fill="#665F5E"/>
<path d="M21.5625 25.3125H3.75V26.25H21.5625C22.0781 26.25 22.5 25.8281 22.5 25.3125V24.375C22.5 24.8906 22.0781 25.3125 21.5625 25.3125Z" fill="#CAD1D8"/>
<path d="M7.7373 16.6621H5.45215V23H4.51953V16.6621H2.23926V15.8906H7.7373V16.6621ZM11.1113 18.6152L12.8154 15.8906H13.9189L11.6729 19.416L13.9727 23H12.8594L11.1113 20.2266L9.35352 23H8.24512L10.5498 19.416L8.29883 15.8906H9.39746L11.1113 18.6152ZM19.9736 16.6621H17.6885V23H16.7559V16.6621H14.4756V15.8906H19.9736V16.6621Z" fill="white"/>
</svg>
