<svg width="24" height="30" viewBox="0 0 24 30" fill="none" xmlns="http://www.w3.org/2000/svg">
<path d="M2.625 0C1.59375 0 0.75 0.84375 0.75 1.875V28.125C0.75 29.1562 1.59375 30 2.625 30H21.375C22.4062 30 23.25 29.1562 23.25 28.125V7.5L15.75 0H2.625Z" fill="#E2E5E7"/>
<path d="M17.625 7.5H23.25L15.75 0V5.625C15.75 6.65625 16.5938 7.5 17.625 7.5Z" fill="#B0B7BD"/>
<path d="M23.25 13.125L17.625 7.5H23.25V13.125Z" fill="#CAD1D8"/>
<path d="M18.5625 25.3125H0.75V26.25H18.5625C19.0781 26.25 19.5 25.8281 19.5 25.3125V24.375C19.5 24.8906 19.0781 25.3125 18.5625 25.3125Z" fill="#CAD1D8"/>
</svg>
