<svg width="16" height="16" viewBox="0 0 16 16" fill="none" xmlns="http://www.w3.org/2000/svg">
<path fill-rule="evenodd" clip-rule="evenodd" d="M15.84 7.92C15.84 12.2941 12.2941 15.84 7.92 15.84C3.5459 15.84 0 12.2941 0 7.92C0 3.5459 3.5459 0 7.92 0C12.2941 0 15.84 3.5459 15.84 7.92ZM15.12 7.92C15.12 11.8965 11.8965 15.12 7.92 15.12C3.94355 15.12 0.72 11.8965 0.72 7.92C0.72 3.94355 3.94355 0.72 7.92 0.72C11.8965 0.72 15.12 3.94355 15.12 7.92ZM6.48 6.12V6.48H7.2V11.88H6.48V12.24H9.36V11.88H8.64V6.12H6.48ZM8.64 4.14C8.64 4.63706 8.23706 5.04 7.74 5.04C7.24294 5.04 6.84 4.63706 6.84 4.14C6.84 3.64294 7.24294 3.24 7.74 3.24C8.23706 3.24 8.64 3.64294 8.64 4.14Z" fill="#D0D0D0"/>
</svg>
